<svg width="26" height="27" viewBox="0 0 26 27" fill="none" xmlns="http://www.w3.org/2000/svg">
<path d="M6.092 15.328H13.196L13.268 16.3H5.984L6.092 15.328ZM7.184 21.592C7.184 21.712 7.14 21.812 7.052 21.892C6.964 21.964 6.82 22 6.62 22H2.924C2.724 22 2.576 21.964 2.48 21.892C2.392 21.82 2.348 21.72 2.348 21.592C2.348 21.504 2.376 21.428 2.432 21.364C2.496 21.292 2.608 21.224 2.768 21.16L3.236 21.004C3.46 20.908 3.632 20.776 3.752 20.608C3.88 20.432 4.016 20.12 4.16 19.672L8.36 7C8.456 6.712 8.476 6.504 8.42 6.376C8.372 6.248 8.204 6.148 7.916 6.076C7.708 6.02 7.56 5.956 7.472 5.884C7.392 5.804 7.352 5.708 7.352 5.596C7.352 5.468 7.4 5.372 7.496 5.308C7.592 5.236 7.736 5.2 7.928 5.2H12.824C13.016 5.2 13.156 5.236 13.244 5.308C13.34 5.372 13.388 5.468 13.388 5.596C13.388 5.708 13.348 5.804 13.268 5.884C13.188 5.956 13.048 6.016 12.848 6.064C12.616 6.112 12.476 6.184 12.428 6.28C12.388 6.376 12.408 6.536 12.488 6.76L16.964 20.056C17.068 20.376 17.192 20.616 17.336 20.776C17.488 20.928 17.704 21.036 17.984 21.1C18.192 21.164 18.332 21.232 18.404 21.304C18.476 21.376 18.512 21.472 18.512 21.592C18.512 21.712 18.464 21.812 18.368 21.892C18.272 21.964 18.124 22 17.924 22H13.172C12.98 22 12.836 21.964 12.74 21.892C12.652 21.812 12.608 21.712 12.608 21.592C12.608 21.48 12.644 21.392 12.716 21.328C12.788 21.256 12.9 21.2 13.052 21.16L13.88 21.04C14.088 20.992 14.196 20.904 14.204 20.776C14.212 20.64 14.168 20.428 14.072 20.14L9.464 6.304L9.812 6.112L5.372 19.552C5.276 19.848 5.228 20.088 5.228 20.272C5.236 20.456 5.3 20.608 5.42 20.728C5.54 20.84 5.724 20.94 5.972 21.028L6.752 21.172C6.904 21.212 7.012 21.264 7.076 21.328C7.148 21.392 7.184 21.48 7.184 21.592Z" fill="#F4BF87"/>
<path d="M21.8133 22.216C21.4853 22.216 21.1893 22.136 20.9253 21.976C20.6613 21.808 20.4493 21.588 20.2893 21.316C20.1373 21.044 20.0613 20.748 20.0613 20.428C20.0613 20.1 20.1373 19.804 20.2893 19.54C20.4493 19.268 20.6613 19.052 20.9253 18.892C21.1973 18.732 21.4933 18.652 21.8133 18.652C22.1413 18.652 22.4373 18.732 22.7013 18.892C22.9653 19.052 23.1733 19.268 23.3253 19.54C23.4773 19.804 23.5533 20.1 23.5533 20.428C23.5533 20.748 23.4773 21.044 23.3253 21.316C23.1733 21.588 22.9653 21.808 22.7013 21.976C22.4373 22.136 22.1413 22.216 21.8133 22.216Z" fill="#4F46E5"/>
</svg>
